<mxfile host="app.diagrams.net" agent="Mozilla/5.0 (Windows NT 10.0; Win64; x64) AppleWebKit/537.36 (KHTML, like Gecko) Chrome/140.0.0.0 Safari/537.36" version="28.2.1">
  <diagram name="第 1 页" id="5d3jTGZeh_yj2rYAEeAB">
    <mxGraphModel dx="1042" dy="535" grid="1" gridSize="10" guides="1" tooltips="1" connect="1" arrows="1" fold="1" page="1" pageScale="1" pageWidth="827" pageHeight="1169" math="0" shadow="0">
      <root>
        <mxCell id="0" />
        <mxCell id="1" parent="0" />
        <mxCell id="0chRGbowG7kzbo-Wp0sp-6" style="edgeStyle=orthogonalEdgeStyle;rounded=0;orthogonalLoop=1;jettySize=auto;html=1;" edge="1" parent="1" source="0chRGbowG7kzbo-Wp0sp-1" target="0chRGbowG7kzbo-Wp0sp-5">
          <mxGeometry relative="1" as="geometry" />
        </mxCell>
        <mxCell id="0chRGbowG7kzbo-Wp0sp-1" value="开始" style="rounded=1;whiteSpace=wrap;html=1;" vertex="1" parent="1">
          <mxGeometry x="354" y="100" width="120" height="60" as="geometry" />
        </mxCell>
        <mxCell id="0chRGbowG7kzbo-Wp0sp-7" style="edgeStyle=orthogonalEdgeStyle;rounded=0;orthogonalLoop=1;jettySize=auto;html=1;" edge="1" parent="1" source="0chRGbowG7kzbo-Wp0sp-5">
          <mxGeometry relative="1" as="geometry">
            <mxPoint x="414" y="340" as="targetPoint" />
          </mxGeometry>
        </mxCell>
        <mxCell id="0chRGbowG7kzbo-Wp0sp-5" value="入口队列(amqp://admin:admin@192.168.0.130:5672)&lt;br&gt;token_address_trigger_queue&lt;br&gt;(由静态检查传过来的消息)" style="rounded=0;whiteSpace=wrap;html=1;" vertex="1" parent="1">
          <mxGeometry x="294" y="220" width="240" height="60" as="geometry" />
        </mxCell>
        <mxCell id="0chRGbowG7kzbo-Wp0sp-9" style="edgeStyle=orthogonalEdgeStyle;rounded=0;orthogonalLoop=1;jettySize=auto;html=1;" edge="1" parent="1" source="0chRGbowG7kzbo-Wp0sp-8">
          <mxGeometry relative="1" as="geometry">
            <mxPoint x="414" y="770" as="targetPoint" />
          </mxGeometry>
        </mxCell>
        <mxCell id="0chRGbowG7kzbo-Wp0sp-8" value="&lt;br&gt;&lt;span style=&quot;box-sizing: border-box; letter-spacing: 4px; color: rgb(112, 125, 107); font-family: &amp;quot;Public Sans&amp;quot;, -apple-system, BlinkMacSystemFont, &amp;quot;Segoe UI&amp;quot;, Oxygen, Ubuntu, Cantarell, &amp;quot;Fira Sans&amp;quot;, &amp;quot;Droid Sans&amp;quot;, &amp;quot;Helvetica Neue&amp;quot;, sans-serif; font-size: 15px; font-style: normal; font-variant-ligatures: normal; font-variant-caps: normal; font-weight: 400; orphans: 2; text-indent: 0px; text-transform: none; widows: 2; word-spacing: 0px; -webkit-text-stroke-width: 0px; white-space: pre-line; background-color: rgb(255, 255, 255); text-decoration-thickness: initial; text-decoration-style: initial; text-decoration-color: initial;&quot; class=&quot;json_nbsp&quot;&gt;&amp;nbsp;&lt;/span&gt;&lt;span style=&quot;box-sizing: border-box; color: rgb(146, 39, 143); font-weight: bold; font-family: &amp;quot;Public Sans&amp;quot;, -apple-system, BlinkMacSystemFont, &amp;quot;Segoe UI&amp;quot;, Oxygen, Ubuntu, Cantarell, &amp;quot;Fira Sans&amp;quot;, &amp;quot;Droid Sans&amp;quot;, &amp;quot;Helvetica Neue&amp;quot;, sans-serif; font-size: 15px; font-style: normal; font-variant-ligatures: normal; font-variant-caps: normal; letter-spacing: normal; orphans: 2; text-indent: 0px; text-transform: none; widows: 2; word-spacing: 0px; -webkit-text-stroke-width: 0px; white-space: pre-line; background-color: rgb(255, 255, 255); text-decoration-thickness: initial; text-decoration-style: initial; text-decoration-color: initial;&quot; class=&quot;json_key&quot;&gt;&quot;media_info&quot;&lt;/span&gt;&lt;span style=&quot;color: rgb(112, 125, 107); font-family: &amp;quot;Public Sans&amp;quot;, -apple-system, BlinkMacSystemFont, &amp;quot;Segoe UI&amp;quot;, Oxygen, Ubuntu, Cantarell, &amp;quot;Fira Sans&amp;quot;, &amp;quot;Droid Sans&amp;quot;, &amp;quot;Helvetica Neue&amp;quot;, sans-serif; font-size: 15px; font-style: normal; font-variant-ligatures: normal; font-variant-caps: normal; font-weight: 400; letter-spacing: normal; orphans: 2; text-indent: 0px; text-transform: none; widows: 2; word-spacing: 0px; -webkit-text-stroke-width: 0px; white-space: pre-line; background-color: rgb(255, 255, 255); text-decoration-thickness: initial; text-decoration-style: initial; text-decoration-color: initial; float: none; display: inline !important;&quot;&gt;:&lt;/span&gt;&lt;span style=&quot;box-sizing: border-box; letter-spacing: 4px; color: rgb(112, 125, 107); font-family: &amp;quot;Public Sans&amp;quot;, -apple-system, BlinkMacSystemFont, &amp;quot;Segoe UI&amp;quot;, Oxygen, Ubuntu, Cantarell, &amp;quot;Fira Sans&amp;quot;, &amp;quot;Droid Sans&amp;quot;, &amp;quot;Helvetica Neue&amp;quot;, sans-serif; font-size: 15px; font-style: normal; font-variant-ligatures: normal; font-variant-caps: normal; font-weight: 400; orphans: 2; text-indent: 0px; text-transform: none; widows: 2; word-spacing: 0px; -webkit-text-stroke-width: 0px; white-space: pre-line; background-color: rgb(255, 255, 255); text-decoration-thickness: initial; text-decoration-style: initial; text-decoration-color: initial;&quot; class=&quot;json_nbsp&quot;&gt;&amp;nbsp;&lt;/span&gt;&lt;span style=&quot;box-sizing: border-box; font-style: normal; font-variant-ligatures: normal; font-variant-caps: normal; font-weight: 400; letter-spacing: normal; orphans: 2; text-indent: 0px; text-transform: none; widows: 2; word-spacing: 0px; -webkit-text-stroke-width: 0px; text-wrap-mode: wrap; text-decoration-thickness: initial; text-decoration-style: initial; text-decoration-color: initial; color: rgb(112, 125, 107); background-color: rgb(255, 255, 255);&quot; data-type=&quot;object&quot;&gt;&lt;i style=&quot;color: rgb(234, 84, 85); font-size: 1.125rem; white-space-collapse: preserve-breaks; background-color: light-dark(rgb(255, 255, 255), rgb(18, 18, 18)); box-sizing: border-box; vertical-align: middle; line-height: 1; display: inline-block; speak: none; font-style: normal; font-weight: normal; font-variant: normal; text-transform: none; -webkit-font-smoothing: antialiased; position: relative; top: -1px; cursor: pointer; font-family: tabler-icons !important;&quot; class=&quot;ti ti-square-rounded-minus&quot;&gt;&lt;/i&gt;&lt;font face=&quot;Public Sans, -apple-system, BlinkMacSystemFont, Segoe UI, Oxygen, Ubuntu, Cantarell, Fira Sans, Droid Sans, Helvetica Neue, sans-serif&quot;&gt;&lt;span style=&quot;font-size: 15px; white-space-collapse: preserve-breaks;&quot;&gt;{&lt;/span&gt;&lt;/font&gt;&lt;br style=&quot;box-sizing: border-box;&quot;&gt;&lt;span style=&quot;color: light-dark(rgb(112, 125, 107), rgb(126, 137, 122)); font-family: &amp;quot;Public Sans&amp;quot;, -apple-system, BlinkMacSystemFont, &amp;quot;Segoe UI&amp;quot;, Oxygen, Ubuntu, Cantarell, &amp;quot;Fira Sans&amp;quot;, &amp;quot;Droid Sans&amp;quot;, &amp;quot;Helvetica Neue&amp;quot;, sans-serif; font-size: 15px; white-space-collapse: preserve-breaks; background-color: light-dark(rgb(255, 255, 255), rgb(18, 18, 18)); box-sizing: border-box; letter-spacing: 4px;&quot; class=&quot;json_nbsp&quot;&gt;&amp;nbsp;&amp;nbsp;&amp;nbsp;&amp;nbsp;&lt;/span&gt;&lt;span style=&quot;color: light-dark(rgb(112, 125, 107), rgb(126, 137, 122)); font-family: &amp;quot;Public Sans&amp;quot;, -apple-system, BlinkMacSystemFont, &amp;quot;Segoe UI&amp;quot;, Oxygen, Ubuntu, Cantarell, &amp;quot;Fira Sans&amp;quot;, &amp;quot;Droid Sans&amp;quot;, &amp;quot;Helvetica Neue&amp;quot;, sans-serif; font-size: 15px; white-space-collapse: preserve-breaks; background-color: light-dark(rgb(255, 255, 255), rgb(18, 18, 18)); box-sizing: border-box; letter-spacing: 4px;&quot; class=&quot;json_nbsp&quot;&gt;&amp;nbsp;&amp;nbsp;&amp;nbsp;&amp;nbsp;&lt;/span&gt;&lt;span style=&quot;color: rgb(146, 39, 143); font-family: &amp;quot;Public Sans&amp;quot;, -apple-system, BlinkMacSystemFont, &amp;quot;Segoe UI&amp;quot;, Oxygen, Ubuntu, Cantarell, &amp;quot;Fira Sans&amp;quot;, &amp;quot;Droid Sans&amp;quot;, &amp;quot;Helvetica Neue&amp;quot;, sans-serif; font-size: 15px; white-space-collapse: preserve-breaks; background-color: light-dark(rgb(255, 255, 255), rgb(18, 18, 18)); box-sizing: border-box; font-weight: bold;&quot; class=&quot;json_key&quot;&gt;&quot;tweet_info&quot;&lt;/span&gt;&lt;font face=&quot;Public Sans, -apple-system, BlinkMacSystemFont, Segoe UI, Oxygen, Ubuntu, Cantarell, Fira Sans, Droid Sans, Helvetica Neue, sans-serif&quot;&gt;&lt;span style=&quot;font-size: 15px; white-space-collapse: preserve-breaks;&quot;&gt;:&lt;/span&gt;&lt;/font&gt;&lt;span style=&quot;color: light-dark(rgb(112, 125, 107), rgb(126, 137, 122)); font-family: &amp;quot;Public Sans&amp;quot;, -apple-system, BlinkMacSystemFont, &amp;quot;Segoe UI&amp;quot;, Oxygen, Ubuntu, Cantarell, &amp;quot;Fira Sans&amp;quot;, &amp;quot;Droid Sans&amp;quot;, &amp;quot;Helvetica Neue&amp;quot;, sans-serif; font-size: 15px; white-space-collapse: preserve-breaks; background-color: light-dark(rgb(255, 255, 255), rgb(18, 18, 18)); box-sizing: border-box; letter-spacing: 4px;&quot; class=&quot;json_nbsp&quot;&gt;&amp;nbsp;&lt;/span&gt;&lt;span style=&quot;color: light-dark(rgb(112, 125, 107), rgb(126, 137, 122)); font-family: &amp;quot;Public Sans&amp;quot;, -apple-system, BlinkMacSystemFont, &amp;quot;Segoe UI&amp;quot;, Oxygen, Ubuntu, Cantarell, &amp;quot;Fira Sans&amp;quot;, &amp;quot;Droid Sans&amp;quot;, &amp;quot;Helvetica Neue&amp;quot;, sans-serif; font-size: 15px; white-space-collapse: preserve-breaks; background-color: light-dark(rgb(255, 255, 255), rgb(18, 18, 18)); box-sizing: border-box;&quot; data-type=&quot;object&quot;&gt;&lt;i style=&quot;box-sizing: border-box; vertical-align: middle; font-size: 1.125rem; line-height: 1; display: inline-block; speak: none; font-style: normal; font-weight: normal; font-variant: normal; text-transform: none; -webkit-font-smoothing: antialiased; color: rgb(234, 84, 85); position: relative; top: -1px; cursor: pointer; font-family: tabler-icons !important;&quot; class=&quot;ti ti-square-rounded-minus&quot;&gt;&lt;/i&gt;{&lt;br style=&quot;box-sizing: border-box;&quot;&gt;&lt;span style=&quot;box-sizing: border-box; letter-spacing: 4px;&quot; class=&quot;json_nbsp&quot;&gt;&amp;nbsp;&amp;nbsp;&amp;nbsp;&amp;nbsp;&lt;/span&gt;&lt;span style=&quot;box-sizing: border-box; letter-spacing: 4px;&quot; class=&quot;json_nbsp&quot;&gt;&amp;nbsp;&amp;nbsp;&amp;nbsp;&amp;nbsp;&lt;/span&gt;&lt;span style=&quot;box-sizing: border-box; letter-spacing: 4px;&quot; class=&quot;json_nbsp&quot;&gt;&amp;nbsp;&amp;nbsp;&amp;nbsp;&amp;nbsp;&lt;/span&gt;&lt;span style=&quot;box-sizing: border-box; color: rgb(146, 39, 143); font-weight: bold;&quot; class=&quot;json_key&quot;&gt;&quot;tweet_id&quot;&lt;/span&gt;:&lt;span style=&quot;box-sizing: border-box; letter-spacing: 4px;&quot; class=&quot;json_nbsp&quot;&gt;&amp;nbsp;&lt;/span&gt;&lt;span style=&quot;box-sizing: border-box; color: rgb(58, 181, 74); font-weight: bold;&quot; class=&quot;json_string&quot;&gt;&quot;1966348480655618141&quot;&lt;/span&gt;,&lt;br style=&quot;box-sizing: border-box;&quot;&gt;&lt;span style=&quot;box-sizing: border-box; letter-spacing: 4px;&quot; class=&quot;json_nbsp&quot;&gt;&amp;nbsp;&amp;nbsp;&amp;nbsp;&amp;nbsp;&lt;/span&gt;&lt;span style=&quot;box-sizing: border-box; letter-spacing: 4px;&quot; class=&quot;json_nbsp&quot;&gt;&amp;nbsp;&amp;nbsp;&amp;nbsp;&amp;nbsp;&lt;/span&gt;&lt;span style=&quot;box-sizing: border-box; letter-spacing: 4px;&quot; class=&quot;json_nbsp&quot;&gt;&amp;nbsp;&amp;nbsp;&amp;nbsp;&amp;nbsp;&lt;/span&gt;&lt;span style=&quot;box-sizing: border-box; color: rgb(146, 39, 143); font-weight: bold;&quot; class=&quot;json_key&quot;&gt;&quot;username&quot;&lt;/span&gt;:&lt;span style=&quot;box-sizing: border-box; letter-spacing: 4px;&quot; class=&quot;json_nbsp&quot;&gt;&amp;nbsp;&lt;/span&gt;&lt;span style=&quot;box-sizing: border-box; color: rgb(58, 181, 74); font-weight: bold;&quot; class=&quot;json_string&quot;&gt;&quot;four_meme_&quot;&lt;/span&gt;,&lt;br style=&quot;box-sizing: border-box;&quot;&gt;&lt;span style=&quot;box-sizing: border-box; letter-spacing: 4px;&quot; class=&quot;json_nbsp&quot;&gt;&amp;nbsp;&amp;nbsp;&amp;nbsp;&amp;nbsp;&lt;/span&gt;&lt;span style=&quot;box-sizing: border-box; letter-spacing: 4px;&quot; class=&quot;json_nbsp&quot;&gt;&amp;nbsp;&amp;nbsp;&amp;nbsp;&amp;nbsp;&lt;/span&gt;&lt;span style=&quot;box-sizing: border-box; letter-spacing: 4px;&quot; class=&quot;json_nbsp&quot;&gt;&amp;nbsp;&amp;nbsp;&amp;nbsp;&amp;nbsp;&lt;/span&gt;&lt;span style=&quot;box-sizing: border-box; color: rgb(146, 39, 143); font-weight: bold;&quot; class=&quot;json_key&quot;&gt;&quot;followers&quot;&lt;/span&gt;:&lt;span style=&quot;box-sizing: border-box; letter-spacing: 4px;&quot; class=&quot;json_nbsp&quot;&gt;&amp;nbsp;&lt;/span&gt;&lt;span style=&quot;box-sizing: border-box; color: rgb(37, 170, 226); font-weight: bold;&quot; class=&quot;json_number&quot;&gt;7059778&lt;/span&gt;,&lt;br style=&quot;box-sizing: border-box;&quot;&gt;&lt;span style=&quot;box-sizing: border-box; letter-spacing: 4px;&quot; class=&quot;json_nbsp&quot;&gt;&amp;nbsp;&amp;nbsp;&amp;nbsp;&amp;nbsp;&lt;/span&gt;&lt;span style=&quot;box-sizing: border-box; letter-spacing: 4px;&quot; class=&quot;json_nbsp&quot;&gt;&amp;nbsp;&amp;nbsp;&amp;nbsp;&amp;nbsp;&lt;/span&gt;&lt;span style=&quot;box-sizing: border-box; letter-spacing: 4px;&quot; class=&quot;json_nbsp&quot;&gt;&amp;nbsp;&amp;nbsp;&amp;nbsp;&amp;nbsp;&lt;/span&gt;&lt;span style=&quot;box-sizing: border-box; color: rgb(146, 39, 143); font-weight: bold;&quot; class=&quot;json_key&quot;&gt;&quot;list_id&quot;&lt;/span&gt;:&lt;span style=&quot;box-sizing: border-box; letter-spacing: 4px;&quot; class=&quot;json_nbsp&quot;&gt;&amp;nbsp;&lt;/span&gt;&lt;span style=&quot;box-sizing: border-box; color: rgb(58, 181, 74); font-weight: bold;&quot; class=&quot;json_string&quot;&gt;&quot;1925100589379162496&quot;&lt;/span&gt;,&lt;br style=&quot;box-sizing: border-box;&quot;&gt;&lt;span style=&quot;box-sizing: border-box; letter-spacing: 4px;&quot; class=&quot;json_nbsp&quot;&gt;&amp;nbsp;&amp;nbsp;&amp;nbsp;&amp;nbsp;&lt;/span&gt;&lt;span style=&quot;box-sizing: border-box; letter-spacing: 4px;&quot; class=&quot;json_nbsp&quot;&gt;&amp;nbsp;&amp;nbsp;&amp;nbsp;&amp;nbsp;&lt;/span&gt;&lt;span style=&quot;box-sizing: border-box; letter-spacing: 4px;&quot; class=&quot;json_nbsp&quot;&gt;&amp;nbsp;&amp;nbsp;&amp;nbsp;&amp;nbsp;&lt;/span&gt;&lt;span style=&quot;box-sizing: border-box; color: rgb(146, 39, 143); font-weight: bold;&quot; class=&quot;json_key&quot;&gt;&quot;registration_time&quot;&lt;/span&gt;:&lt;span style=&quot;box-sizing: border-box; letter-spacing: 4px;&quot; class=&quot;json_nbsp&quot;&gt;&amp;nbsp;&lt;/span&gt;&lt;span style=&quot;box-sizing: border-box; color: rgb(58, 181, 74); font-weight: bold;&quot; class=&quot;json_string&quot;&gt;&quot;Fri&amp;nbsp;Mar&amp;nbsp;06&amp;nbsp;03:20:20&amp;nbsp;+0000&amp;nbsp;2009&quot;&lt;/span&gt;,&lt;br style=&quot;box-sizing: border-box;&quot;&gt;&lt;span style=&quot;box-sizing: border-box; letter-spacing: 4px;&quot; class=&quot;json_nbsp&quot;&gt;&amp;nbsp;&amp;nbsp;&amp;nbsp;&amp;nbsp;&lt;/span&gt;&lt;span style=&quot;box-sizing: border-box; letter-spacing: 4px;&quot; class=&quot;json_nbsp&quot;&gt;&amp;nbsp;&amp;nbsp;&amp;nbsp;&amp;nbsp;&lt;/span&gt;&lt;span style=&quot;box-sizing: border-box; letter-spacing: 4px;&quot; class=&quot;json_nbsp&quot;&gt;&amp;nbsp;&amp;nbsp;&amp;nbsp;&amp;nbsp;&lt;/span&gt;&lt;span style=&quot;box-sizing: border-box; color: rgb(146, 39, 143); font-weight: bold;&quot; class=&quot;json_key&quot;&gt;&quot;rest_id&quot;&lt;/span&gt;:&lt;span style=&quot;box-sizing: border-box; letter-spacing: 4px;&quot; class=&quot;json_nbsp&quot;&gt;&amp;nbsp;&lt;/span&gt;&lt;span style=&quot;box-sizing: border-box; color: rgb(58, 181, 74); font-weight: bold;&quot; class=&quot;json_string&quot;&gt;&quot;1966348480655618141&quot;&lt;/span&gt;,&lt;br style=&quot;box-sizing: border-box;&quot;&gt;&lt;span style=&quot;box-sizing: border-box; letter-spacing: 4px;&quot; class=&quot;json_nbsp&quot;&gt;&amp;nbsp;&amp;nbsp;&amp;nbsp;&amp;nbsp;&lt;/span&gt;&lt;span style=&quot;box-sizing: border-box; letter-spacing: 4px;&quot; class=&quot;json_nbsp&quot;&gt;&amp;nbsp;&amp;nbsp;&amp;nbsp;&amp;nbsp;&lt;/span&gt;&lt;span style=&quot;box-sizing: border-box; letter-spacing: 4px;&quot; class=&quot;json_nbsp&quot;&gt;&amp;nbsp;&amp;nbsp;&amp;nbsp;&amp;nbsp;&lt;/span&gt;&lt;span style=&quot;box-sizing: border-box; color: rgb(146, 39, 143); font-weight: bold;&quot; class=&quot;json_key&quot;&gt;&quot;tweet_note&quot;&lt;/span&gt;:&lt;span style=&quot;box-sizing: border-box; letter-spacing: 4px;&quot; class=&quot;json_nbsp&quot;&gt;&amp;nbsp;&lt;/span&gt;&lt;span style=&quot;box-sizing: border-box; color: rgb(58, 181, 74); font-weight: bold;&quot; class=&quot;json_string&quot;&gt;&quot;desci&quot;&lt;/span&gt;,&lt;br style=&quot;box-sizing: border-box;&quot;&gt;&lt;span style=&quot;box-sizing: border-box; letter-spacing: 4px;&quot; class=&quot;json_nbsp&quot;&gt;&amp;nbsp;&amp;nbsp;&amp;nbsp;&amp;nbsp;&lt;/span&gt;&lt;span style=&quot;box-sizing: border-box; letter-spacing: 4px;&quot; class=&quot;json_nbsp&quot;&gt;&amp;nbsp;&amp;nbsp;&amp;nbsp;&amp;nbsp;&lt;/span&gt;&lt;span style=&quot;box-sizing: border-box; letter-spacing: 4px;&quot; class=&quot;json_nbsp&quot;&gt;&amp;nbsp;&amp;nbsp;&amp;nbsp;&amp;nbsp;&lt;/span&gt;&lt;span style=&quot;box-sizing: border-box; color: rgb(146, 39, 143); font-weight: bold;&quot; class=&quot;json_key&quot;&gt;&quot;timestamp&quot;&lt;/span&gt;:&lt;span style=&quot;box-sizing: border-box; letter-spacing: 4px;&quot; class=&quot;json_nbsp&quot;&gt;&amp;nbsp;&lt;/span&gt;&lt;span style=&quot;box-sizing: border-box; color: rgb(37, 170, 226); font-weight: bold;&quot; class=&quot;json_number&quot;&gt;1757648985&lt;/span&gt;,&lt;br style=&quot;box-sizing: border-box;&quot;&gt;&lt;span style=&quot;box-sizing: border-box; letter-spacing: 4px;&quot; class=&quot;json_nbsp&quot;&gt;&amp;nbsp;&amp;nbsp;&amp;nbsp;&amp;nbsp;&lt;/span&gt;&lt;span style=&quot;box-sizing: border-box; letter-spacing: 4px;&quot; class=&quot;json_nbsp&quot;&gt;&amp;nbsp;&amp;nbsp;&amp;nbsp;&amp;nbsp;&lt;/span&gt;&lt;span style=&quot;box-sizing: border-box; letter-spacing: 4px;&quot; class=&quot;json_nbsp&quot;&gt;&amp;nbsp;&amp;nbsp;&amp;nbsp;&amp;nbsp;&lt;/span&gt;&lt;span style=&quot;box-sizing: border-box; color: rgb(146, 39, 143); font-weight: bold;&quot; class=&quot;json_key&quot;&gt;&quot;listed_count&quot;&lt;/span&gt;:&lt;span style=&quot;box-sizing: border-box; letter-spacing: 4px;&quot; class=&quot;json_nbsp&quot;&gt;&amp;nbsp;&lt;/span&gt;&lt;span style=&quot;box-sizing: border-box; color: rgb(37, 170, 226); font-weight: bold;&quot; class=&quot;json_number&quot;&gt;17886&lt;/span&gt;,&lt;br style=&quot;box-sizing: border-box;&quot;&gt;&lt;span style=&quot;box-sizing: border-box; letter-spacing: 4px;&quot; class=&quot;json_nbsp&quot;&gt;&amp;nbsp;&amp;nbsp;&amp;nbsp;&amp;nbsp;&lt;/span&gt;&lt;span style=&quot;box-sizing: border-box; letter-spacing: 4px;&quot; class=&quot;json_nbsp&quot;&gt;&amp;nbsp;&amp;nbsp;&amp;nbsp;&amp;nbsp;&lt;/span&gt;&lt;span style=&quot;box-sizing: border-box; letter-spacing: 4px;&quot; class=&quot;json_nbsp&quot;&gt;&amp;nbsp;&amp;nbsp;&amp;nbsp;&amp;nbsp;&lt;/span&gt;&lt;span style=&quot;box-sizing: border-box; color: rgb(146, 39, 143); font-weight: bold;&quot; class=&quot;json_key&quot;&gt;&quot;statuses_count&quot;&lt;/span&gt;:&lt;span style=&quot;box-sizing: border-box; letter-spacing: 4px;&quot; class=&quot;json_nbsp&quot;&gt;&amp;nbsp;&lt;/span&gt;&lt;span style=&quot;box-sizing: border-box; color: rgb(37, 170, 226); font-weight: bold;&quot; class=&quot;json_number&quot;&gt;55517&lt;/span&gt;,&lt;br style=&quot;box-sizing: border-box;&quot;&gt;&lt;span style=&quot;box-sizing: border-box; letter-spacing: 4px;&quot; class=&quot;json_nbsp&quot;&gt;&amp;nbsp;&amp;nbsp;&amp;nbsp;&amp;nbsp;&lt;/span&gt;&lt;span style=&quot;box-sizing: border-box; letter-spacing: 4px;&quot; class=&quot;json_nbsp&quot;&gt;&amp;nbsp;&amp;nbsp;&amp;nbsp;&amp;nbsp;&lt;/span&gt;&lt;span style=&quot;box-sizing: border-box; letter-spacing: 4px;&quot; class=&quot;json_nbsp&quot;&gt;&amp;nbsp;&amp;nbsp;&amp;nbsp;&amp;nbsp;&lt;/span&gt;&lt;span style=&quot;box-sizing: border-box; color: rgb(146, 39, 143); font-weight: bold;&quot; class=&quot;json_key&quot;&gt;&quot;verified&quot;&lt;/span&gt;:&lt;span style=&quot;box-sizing: border-box; letter-spacing: 4px;&quot; class=&quot;json_nbsp&quot;&gt;&amp;nbsp;&lt;/span&gt;&lt;span style=&quot;box-sizing: border-box; color: rgb(249, 130, 128); font-weight: bold;&quot; class=&quot;json_boolean&quot;&gt;true&lt;/span&gt;&lt;br style=&quot;box-sizing: border-box;&quot;&gt;&lt;span style=&quot;box-sizing: border-box; letter-spacing: 4px;&quot; class=&quot;json_nbsp&quot;&gt;&amp;nbsp;&amp;nbsp;&amp;nbsp;&amp;nbsp;&lt;/span&gt;&lt;span style=&quot;box-sizing: border-box; letter-spacing: 4px;&quot; class=&quot;json_nbsp&quot;&gt;&amp;nbsp;&amp;nbsp;&amp;nbsp;&amp;nbsp;&lt;/span&gt;}&lt;/span&gt;&lt;br style=&quot;box-sizing: border-box;&quot;&gt;&lt;span style=&quot;color: light-dark(rgb(112, 125, 107), rgb(126, 137, 122)); font-family: &amp;quot;Public Sans&amp;quot;, -apple-system, BlinkMacSystemFont, &amp;quot;Segoe UI&amp;quot;, Oxygen, Ubuntu, Cantarell, &amp;quot;Fira Sans&amp;quot;, &amp;quot;Droid Sans&amp;quot;, &amp;quot;Helvetica Neue&amp;quot;, sans-serif; font-size: 15px; white-space-collapse: preserve-breaks; background-color: light-dark(rgb(255, 255, 255), rgb(18, 18, 18)); box-sizing: border-box; letter-spacing: 4px;&quot; class=&quot;json_nbsp&quot;&gt;&amp;nbsp;&amp;nbsp;&amp;nbsp;&amp;nbsp;&lt;/span&gt;&lt;font face=&quot;Public Sans, -apple-system, BlinkMacSystemFont, Segoe UI, Oxygen, Ubuntu, Cantarell, Fira Sans, Droid Sans, Helvetica Neue, sans-serif&quot;&gt;&lt;font&gt;&lt;span style=&quot;font-size: 15px; white-space-collapse: preserve-breaks;&quot;&gt;}&lt;/span&gt;&lt;/font&gt;&lt;/font&gt;&lt;/span&gt;&lt;div&gt;&lt;font face=&quot;Public Sans, -apple-system, BlinkMacSystemFont, Segoe UI, Oxygen, Ubuntu, Cantarell, Fira Sans, Droid Sans, Helvetica Neue, sans-serif&quot;&gt;&lt;span style=&quot;white-space-collapse: preserve-breaks; background-color: rgb(255, 255, 255);&quot;&gt;&lt;span style=&quot;font-size: 15px;&quot;&gt;&lt;font color=&quot;#707d6b&quot;&gt;&lt;br&gt;&lt;/font&gt;&lt;/span&gt;&lt;/span&gt;&lt;/font&gt;对&lt;span style=&quot;background-color: rgb(255, 255, 255); white-space-collapse: preserve-breaks;&quot;&gt;&lt;font style=&quot;font-size: 12px;&quot; face=&quot;Helvetica&quot;&gt;tweet_note这个字段的内容进行EVM系地址提取和Solana地址提取，能够提取出地址则进入下一步，提取不出则丢弃消息&lt;/font&gt;&lt;/span&gt;&lt;/div&gt;" style="rounded=0;whiteSpace=wrap;html=1;align=left;" vertex="1" parent="1">
          <mxGeometry x="164" y="340" width="500" height="340" as="geometry" />
        </mxCell>
        <mxCell id="0chRGbowG7kzbo-Wp0sp-10" value="" style="rounded=0;whiteSpace=wrap;html=1;" vertex="1" parent="1">
          <mxGeometry x="354" y="770" width="120" height="60" as="geometry" />
        </mxCell>
      </root>
    </mxGraphModel>
  </diagram>
</mxfile>
